<svg xmlns="http://www.w3.org/2000/svg" viewBox="0 0 512.003 512.003" style="enable-background:new 0 0 512.003 512.003" xml:space="preserve" width="512" height="512"><path d="m196.953 46.696-15.207 15.123-7.903-7.87c-7.171-7.141-8.2-7.869-11.126-7.869-4.022 0-7.41 3.245-7.41 7.096 0 2.171 1.842 4.44 11.613 14.301 6.411 6.47 12.494 11.888 13.581 12.096 1.083.207 3.057-.102 4.387-.686 3.245-1.426 36.664-35.169 37.767-38.133 1.709-4.594-1.823-9.181-7.07-9.181-3.296 0-3.994.567-18.632 15.123m54.706-14.029c-2.848 2.187-3.339 4.714-3.339 17.197v12.429h-13.11c-13.028 0-13.125.015-15.36 2.25-2.236 2.235-2.25 2.333-2.25 15.36v13.11h-27.334c-29.046 0-32.016.361-34.037 4.139-.615 1.148-.922 12.698-.922 34.662 0 36.309-.033 36.075 5.303 37.935 3.438 1.199 15.875 1.18 19.342-.028 2.791-.973 5.221-4.463 5.221-7.498 0-.936-.902-2.75-2.004-4.032-1.683-1.955-2.849-2.391-7.254-2.71l-5.248-.379V139.095l23.253.212 23.253.213.246 7.893.245 7.894h-3.061c-8.564 0-12.362 7.852-6.398 13.226 1.855 1.673 3.274 1.712 70.284 1.955 37.615.136 69.681.015 71.257-.269 1.576-.285 3.784-1.509 4.907-2.72l2.04-2.202V67.282l-2.494-2.494-2.494-2.495h-25.612l-.273-13.16c-.261-12.57-.366-13.259-2.342-15.36l-2.069-2.2-34.198.027c-25.536.021-34.541.291-35.552 1.067m58.954 21.505v8.092H263.68V46.08h46.933v8.092M279.04 85.333v7.68h-46.08v-15.36h46.08v7.68m62.293 0v7.68H294.4v-15.36h46.933v7.68m-155.306 30.72v7.68h-15.36v-15.36h15.36v7.68m62.293 0v7.68h-46.933v-15.36h46.933v7.68m62.293 0v7.68H263.68v-15.36h46.933v7.68m30.72 0v7.68h-15.36v-15.36h15.36v7.68M279.04 147.2v8.107h-46.08v-16.214h46.08v8.107m62.293.014v8.093H294.4v-7.538c0-4.146.249-7.787.553-8.091.304-.304 10.864-.554 23.467-.555l22.913-.001v8.092m-276.387 6.173C61.6 156.535.571 262.519.164 265.889c-.227 1.875.258 3.274 1.679 4.847 3.265 3.614 35.885 21.957 39.047 21.957 5.674 0 9.088-7.463 5.403-11.814-.821-.97-7.253-5.077-14.293-9.128-7.04-4.052-13.079-7.631-13.42-7.954-.722-.686 53.219-94.468 54.234-94.292.375.066 26.948 15.234 59.052 33.707 44.338 25.514 58.247 33.896 57.857 34.868l-1.882 4.693c-1.168 2.912-1.37 7.966-1.378 34.42l-.01 31.006 2.395 2.061c2.249 1.936 3.025 2.06 12.858 2.06 16.093 0 24.351-3.103 33.815-12.706 5.099-5.174 7.749-9.269 10.204-15.771.887-2.35 1.111-2.436 5.446-2.076 5.511.457 8.077 2.247 11.577 8.077 8.275 13.786 23.595 22.476 39.623 22.476 11.527 0 20.417-3.081 29.416-10.194 5.769-4.56 7.7-5.259 10.863-3.928 4.202 1.768 69.716 39.701 72.923 42.222 9.652 7.589 6.646 23.367-5.116 26.86-7.216 2.143-5.563 2.897-50.35-22.962-18.07-10.433-34.083-19.596-35.585-20.363-3.784-1.933-6.58-1.745-9.338.628-2.975 2.558-3.251 7.356-.578 10.029.976.976 18.621 11.485 39.211 23.353 20.59 11.869 38.66 22.804 40.155 24.302 7.769 7.781 3.463 22.677-7.412 25.643-6.823 1.86-3.686 3.409-65.267-32.225-11.727-6.786-22.508-12.53-23.958-12.765-5.565-.904-10.238 7.176-6.642 11.485.866 1.037 15.582 9.972 32.703 19.856 17.122 9.884 32.038 18.819 33.148 19.855 5.847 5.459 6.197 15.875.732 21.837-2.449 2.672-7.985 5.178-11.49 5.202-3.883.026-6.646-1.261-22.553-10.5-35.544-20.645-46.465-26.85-48.204-27.388-2.249-.697-6.654 1.378-7.91 3.726-1.347 2.516-1.051 5.571.762 7.876.902 1.147 9.589 6.671 19.305 12.275 9.715 5.604 18.748 11.297 20.073 12.651 4.027 4.115 4.86 12.442 1.814 18.135-1.649 3.08-6.832 7.029-10.009 7.625-5.455 1.023-9.019-.301-23.809-8.844l-14.562-8.412.209-2.923c.661-9.256-4.292-20.723-11.529-26.689-3.565-2.94-11.578-6.527-14.577-6.527-1.339 0-1.508-.866-1.462-7.467.047-6.668-.235-8.074-2.639-13.148-4.833-10.201-13.921-16.715-24.503-17.564l-5.445-.437-.41-5.733c-1.243-17.369-16.055-30.212-33.188-28.776-3.158.265-6.903 1.082-8.323 1.817-3.619 1.872-4.373 1.684-4.373-1.09 0-3.853-2.172-10.048-5.15-14.689-7.486-11.666-24.405-16.745-37.089-11.135l-4.072 1.802-17.753-10.243c-12.27-7.08-18.571-10.244-20.403-10.244-3.53 0-6.839 3.312-6.839 6.844 0 5.094-.401 4.778 23.727 18.703l6.234 3.597-3.674 2.436c-7.458 4.945-11.98 12.01-13.611 21.268-1.502 8.528 1.677 18.293 8.366 25.696 2.905 3.217 12.267 8.496 15.064 8.496 1.093 0 1.161.514.421 3.195-1.397 5.057-.437 15.378 1.845 19.845 6.029 11.802 15.662 17.92 28.216 17.92h5.698l.514 5.504c1.256 13.452 11.703 24.397 25.768 26.997 6.01 1.111 12.319-.018 19.025-3.403l5.057-2.553.47 4.548c1.755 17.009 20.696 30.246 36.994 25.856 5.823-1.569 21.705-10.401 26.702-14.849l3.991-3.553 11.903 6.864c19.061 10.992 21.891 12.156 29.396 12.094 8.437-.069 14.739-2.523 20.866-8.123 5.507-5.033 8.908-11.445 9.594-18.09l.49-4.747 5.057 2.553c9.837 4.965 18.612 5.033 28.446.218 8.89-4.353 15.728-14.495 16.458-24.409l.361-4.907h5.719c13.455 0 24.276-7.561 29.124-20.35 1.545-4.075 1.761-6.019 1.389-12.538l-.439-7.715 5.246-2.034c6.155-2.387 12.875-8.609 15.758-14.592 6.821-14.151 2.203-31.037-10.735-39.258l-3.653-2.321 4.251-2.616c5.376-3.307 7.234-6.022 6.478-9.464-.683-3.111-4.118-6.018-7.11-6.018-1.198 0-5.915 2.116-10.483 4.702l-8.305 4.703-27.163-15.676c-14.939-8.621-27.985-15.934-28.99-16.251-1.782-.56-1.795-.676-.513-4.6 1.738-5.32 1.906-21.098.256-24.078-1.739-3.144-3.513-4.21-7.055-4.24-2.183-.019-3.707.553-4.907 1.841-2.046 2.196-1.908 1.345-2.052 12.639-.1 7.8-.411 9.593-2.408 13.854-6.303 13.449-21.382 20.853-35.458 17.411-8.121-1.986-14.189-6.352-19.142-13.772-7.161-10.729-13.076-14.728-23.96-16.197l-4.053-.548v-3.815c0-2.098-.539-5.104-1.197-6.681-2.185-5.228-9.743-5.921-12.755-1.17-.844 1.332-1.354 5.231-1.595 12.198-.404 11.682-1.737 15.748-7.112 21.698-5.334 5.904-13.495 9.448-21.756 9.448h-2.518l.018-24.533c.017-21.955.184-24.896 1.586-27.982 1.627-3.583 5.678-7.535 9.441-9.211 1.512-.674 18.015-1.119 53.808-1.453 56.184-.524 53.539-.3 67.467-5.708 3.353-1.301 28.424-15.278 55.714-31.058 36.719-21.233 49.868-28.443 50.577-27.734 1.185 1.186 52.978 90.981 53.371 92.532.176.691-8.379 6.151-22.329 14.252-12.437 7.223-23.285 13.962-24.107 14.975-1.677 2.07-1.929 5.217-.614 7.674.925 1.729 5.063 4.22 7.01 4.22 1.896 0 54.677-30.644 56.751-32.949 1.056-1.173 1.92-3.145 1.92-4.382 0-2.863-62.476-111.352-65.49-113.722-1.185-.932-2.985-1.694-4-1.694-1.016 0-24.868 13.289-53.005 29.531-57.785 33.356-60.379 34.748-69.389 37.254-6.211 1.727-8.932 1.834-58.143 2.287l-51.626.475-5.142 2.377-5.142 2.377-64.359-37.15c-35.398-20.433-65.238-37.151-66.312-37.151-1.073 0-3.074 1.056-4.446 2.347m66.846 175.374c8.383 4.748 10.214 17.327 3.49 23.976-3.366 3.33-22.41 14.131-26.564 15.068-4.101.925-10.417-.992-13.347-4.052-4.834-5.046-6.078-11.705-3.313-17.726 2.099-4.57 3.472-5.673 16.125-12.953 9.91-5.702 11.266-6.246 15.55-6.233 3.265.01 5.718.594 8.059 1.92m46.305 27.645c7.067 4.583 9.28 13.889 5.022 21.119-1.803 3.062-4.738 5.051-24.029 16.288-12.086 7.04-23.353 13.302-25.039 13.915-9.312 3.387-19.857-4.289-20.005-14.562-.112-7.818 2.363-10.901 14.381-17.914 36.175-21.111 36.19-21.119 41.353-21.119 3.765 0 5.574.495 8.317 2.273m32.205 34.03c8.908 4.227 10.826 18.737 3.335 25.231-2.159 1.872-37.909 22.701-41.634 24.258-3.841 1.605-7.419 1.582-11.379-.072-6.515-2.723-9.619-7.352-9.704-14.47-.068-5.624 1.789-9.209 6.568-12.681 4.768-3.464 36.898-21.974 40.485-23.324 3.609-1.357 8.04-.977 12.329 1.058m26.712 38.041c9.183 4.446 11.322 16.292 4.371 24.21-3.068 3.494-18.244 12.28-22.368 12.949-4.672.759-8.834-.39-12.236-3.377-3.189-2.801-6.199-8.252-6.224-11.272-.027-3.23 1.753-8.059 3.916-10.63 1.971-2.342 15.493-10.932 20.165-12.81 3.325-1.336 8.498-.948 12.376.93" fill-rule="evenodd"/></svg>