<svg xmlns="http://www.w3.org/2000/svg" style="enable-background:new 0 0 512 512" xml:space="preserve" width="512" height="512"><path d="M128.427 1.031c-2.876 1.649-3.785 3.49-3.813 7.723-.026 3.933-.134 4.103-3.447 5.428-1.881.753-5.121 3.26-7.2 5.572-4.777 5.314-6.204 10.846-4.492 17.417 2.485 9.541 9.959 14.882 20.826 14.882 5.095 0 6.544.312 7.939 1.707 2.054 2.054 2.134 3.277.378 5.783-1.155 1.649-2.098 1.897-7.231 1.897-5.669 0-5.955-.1-7.2-2.508-2.542-4.916-7.476-6.562-11.411-3.806-6.287 4.403-2.431 14.907 7.203 19.62 4.603 2.252 4.608 2.258 4.608 6.272 0 5.095 2.723 8.07 7.387 8.07 4.405 0 7.119-3.336 7.119-8.751 0-3.876.131-4.095 3.085-5.163 4.443-1.607 9.391-6.428 11.047-10.765 2.184-5.717 1.424-13.737-1.733-18.293-3.892-5.616-8.686-7.932-17.774-8.588-6.067-.437-7.91-.884-8.826-2.137-3.074-4.203-.377-7.231 6.439-7.231 4.723 0 4.997.124 6.979 3.143 2.54 3.87 5.829 5.128 9.465 3.622 7.624-3.158 4.642-15.139-4.924-19.786-3.727-1.811-3.758-1.862-3.758-6.273 0-3.919-.312-4.71-2.625-6.657-2.821-2.373-5.319-2.74-8.041-1.178m184.681 1.463c-2.804 2.804-3.202 5.874-1.163 8.984 1.819 2.778 3.127 3.219 11.266 3.803l7.051.506-37.105 37.09-37.105 37.09-13.998-13.837c-13.212-13.059-14.183-13.837-17.283-13.837-3.185 0-4.285 1.001-36.375 33.09-30.18 30.181-33.089 33.337-33.089 35.906 0 3.863 3.938 7.804 7.799 7.804 2.555 0 5.497-2.681 32.292-29.437l29.482-29.437 12.787 12.855c13.703 13.778 16.352 15.758 19.918 14.889 1.449-.352 16.822-15.092 43.002-41.23l40.746-40.682v6.047c0 7.208 1.111 10.836 3.874 12.646 3.118 2.043 6.186 1.648 8.992-1.158l2.494-2.495V4.787L354.4 2.393 352.107 0H315.602l-2.494 2.494m17.538 91.685c-1.419.633-3.051 2.183-3.627 3.446-.795 1.746-1.046 17.4-1.046 65.402v63.106h-15.284l-.251-32.64c-.27-35.048-.296-35.254-4.725-37.272-1.208-.55-8.634-.914-18.649-.914-18.597 0-20.796.511-22.438 5.221-.62 1.778-.946 12.626-.946 31.474v28.761l-5.76.977c-3.168.537-6.612 1.21-7.652 1.497l-1.893.521-.241-47.384-.241-47.384-2.068-2.202-2.069-2.201h-18.435c-20.677 0-21.493.205-23.043 5.785-.556 2.001-.884 20.006-.887 48.706-.004 41.167-.134 45.482-1.354 45.013-.743-.285-4.185-.518-7.65-.518h-6.301l-.243-31.977-.243-31.977-1.942-1.943c-1.881-1.882-2.512-1.951-20.146-2.202l-18.205-.259-2.68 2.255-2.68 2.255v32.778c0 21.071-.302 32.777-.845 32.777-.465 0-10.161-3.015-21.547-6.701-11.386-3.685-24.979-7.977-30.207-9.538l-9.504-2.837-.347-7.927c-.302-6.907-.608-8.206-2.377-10.089l-2.031-2.161-26.518.027c-19.499.02-26.876.302-27.872 1.066-3.216 2.47-3.339 3.957-3.336 40.451.003 33.704.094 35.832 1.645 38.374 1.973 3.235 5.747 4.347 9.177 2.703 4.41-2.115 4.509-2.917 4.522-36.755l.013-31.36h31.582l-.218 77.867-.217 77.867-15.544.232-15.544.233-.243-32.378-.243-32.378-2.068-2.201c-2.851-3.034-7.52-3.033-10.37 0l-2.068 2.202v75.104l2.394 2.06 2.394 2.059h25.789c28.792 0 28.791 0 30.398-5.785.485-1.746.884-4.661.887-6.478l.004-3.303 4.051 3.303c6.961 5.676 7.66 6.917 12.664 22.503 2.637 8.213 5.766 16.997 6.953 19.52l2.157 4.586-3.102 6.08c-5.4 10.584-5.717 17.21-1.281 26.688 2.736 5.844 6.31 9.401 12.937 12.874 3.851 2.019 5.47 2.337 12.067 2.375l7.618.042.828 2.531c2.22 6.784 9.209 13.481 16.992 16.281 3.675 1.323 11.912 1.786 14.896.839 1.294-.411 1.852.134 2.755 2.688 2.924 8.271 11.58 15.534 20.823 17.473 5.77 1.21 12.337.129 18.354-3.023l3.834-2.008 4.883 4.882c6.524 6.525 12.37 8.816 21.11 8.276 4.756-.295 7.408-.999 11.282-2.997l5.063-2.611 10.905 6.506c12.422 7.412 17.605 9.49 23.763 9.53 5.213.034 12.29-1.956 16.571-4.658 7.301-4.609 13.664-15.002 13.664-22.317 0-2.567.235-2.949 1.493-2.43 10.315 4.26 25.002.849 32.271-7.494 5.39-6.187 7.577-11.911 7.732-20.236l.135-7.244 2.624-.536c4.744-.971 11.856-5.019 15.073-8.58 5.095-5.639 7.566-11.964 7.616-19.49l.043-6.4 5.354-1.497c6.631-1.852 10.952-4.526 15.054-9.315 6.593-7.698 8.879-17.965 6.117-27.468-1.448-4.98-1.273-6.52.742-6.52 2.779 0 12.42-3.613 16.996-6.369 2.756-1.66 5.106-3.018 5.223-3.018.118 0 .473 1.955.79 4.345.386 2.911 1.255 5.024 2.631 6.4l2.055 2.055h52.036l2.394-2.059 2.394-2.058.256-32.715c.14-17.993.027-33.964-.253-35.491-.699-3.821-3.471-6.19-7.204-6.157-3.347.03-5.232 1.141-6.739 3.971-.699 1.312-.993 10.474-.993 30.952v29.089l-15.573-.233-15.574-.232-.217-77.867-.218-77.867h31.582v33.749c0 36.686.084 37.382 4.737 39.503 1.748.796 3.003.819 5.199.095 5.437-1.795 5.424-1.692 5.424-43.382 0-23.904-.322-38.381-.887-39.866-1.727-4.542-1.77-4.549-30.324-4.578l-26.518-.027-2.02 2.15c-1.739 1.851-2.071 3.216-2.386 9.808l-.367 7.659-3.095.812c-1.703.447-7.896 2-13.763 3.451s-13.931 3.804-17.92 5.229c-7.358 2.628-23.084 6.728-25.813 6.73-1.387.001-1.494-1.72-1.494-24.203v-24.204l-2.249-2.249c-4.231-4.231-10.572-2.396-12.219 3.535-.507 1.825-.884 13.055-.887 26.412l-.005 23.237-1.92.399c-1.056.22-4.512.642-7.68.938l-5.76.538V108.373h15.36l.005 16.854c.003 9.269.394 18.254.869 19.965 1.377 4.955 6.152 7.165 10.489 4.855 3.88-2.066 3.942-2.496 3.97-27.759l.027-24.059-2.057-2.395-2.058-2.394-17.356-.205c-13.076-.155-17.992.078-19.936.944m-97.892 90.764-.221 45.851-3.413 1.836-3.413 1.837-4.48-2.912-4.48-2.912v-89.55h16.228l-.221 45.85m-62.087 12.488v26.764l-3.959.542c-2.178.299-5.634.543-7.68.543h-3.721v-54.613h15.36v26.764m124.586-.311c0 24.623-.103 26.454-1.493 26.459-.821.003-4.469-.447-8.107-1.001l-6.613-1.007v-50.904h16.213v26.453m137.18 143.584c-6.133 4.841-14.955 10.145-18.747 11.271-2.403.713-7.495 1.749-11.315 2.301l-6.947 1.005-25.979-14.957-25.978-14.956-11.947.379c-13.78.438-24.991-.957-36.267-4.513-14.338-4.522-24.822-11.252-40.421-25.947-7.671-7.226-10.538-9.419-12.309-9.413-1.425.004-11.956 5.569-27.483 14.522-23.855 13.756-28.774 16.175-32.915 16.186-7.335.02-15.574-6.76-17.384-14.305-1.397-5.82.452-12.606 4.526-16.617 4.574-4.504 75.33-44.832 82.844-47.218 9.085-2.885 17.894-3.408 27.782-1.648 31.178 5.548 58.108 6.063 86.187 1.648 12.017-1.889 26.728-5.32 35.413-8.259 4.224-1.43 13.248-4.006 20.054-5.725l12.373-3.125.219 58.925.219 58.926-1.925 1.52M90.027 225.593c5.162 1.611 17.45 5.518 27.306 8.683 16.715 5.367 18.566 5.782 27.518 6.166 5.279.227 15.171-.055 21.983-.627 19.282-1.619 31.279-1.357 38.293.835 4.86 1.519 5.67 2.023 4.693 2.925-.649.6-10.78 6.599-22.513 13.333-11.734 6.733-22.705 13.225-24.382 14.424-4.542 3.252-8.196 7.766-10.821 13.37-2.067 4.413-2.344 6.014-2.344 13.538 0 7.457.286 9.144 2.27 13.376 4.106 8.759 11.848 15.521 20.992 18.334 5.45 1.677 14.199 1.601 19.405-.168 2.346-.798 14.209-7.195 26.361-14.216l22.095-12.766 4.785 4.616c17.119 16.513 33.13 25.598 53.564 30.392 9.177 2.153 28.572 3.896 35.275 3.17l4.693-.508 26.027 15.014c14.314 8.257 26.738 15.651 27.607 16.429 3.946 3.535 5.309 12.135 2.717 17.148-3.107 6.007-10.406 9.358-16.372 7.517-1.884-.582-12.649-6.338-23.921-12.791-12.572-7.198-21.395-11.734-22.822-11.734-2.774 0-7.316 4.173-7.316 6.721 0 2.598 1.598 5.599 3.687 6.925 1.023.649 8.772 5.175 17.22 10.059 8.448 4.883 16.608 9.823 18.134 10.978 3.806 2.879 5.332 6.216 5.332 11.654 0 8.267-6.177 14.25-14.714 14.25-3.165 0-6.705-1.723-25.415-12.372-24.795-14.112-26.293-14.558-30.107-8.985-1.905 2.784-1.824 5.284.257 7.929.936 1.189 8.904 6.302 17.707 11.361 25.294 14.536 26.663 15.753 26.669 23.698.007 8.42-5.145 14.215-13.234 14.885-5.131.426-4.968.501-29.846-13.802-7.744-4.453-13.734-7.354-15.185-7.354-5.559 0-8.91 7.883-5.145 12.103.705.79 4.867 3.576 9.249 6.191 4.382 2.615 8.76 5.763 9.73 6.995 7.324 9.312.408 23.493-11.459 23.493-4.031 0-5.419-.613-18.162-8.027l-8.775-5.105 1.851-3.105c8.12-13.626 9.936-19.331 8.545-26.854-2.407-13.021-12.24-22.123-25.207-23.334l-5.395-.504-1.403-5.047c-3.705-13.324-14.306-20.894-28.276-20.188-6.127.309-6.307.261-6.822-1.83-1.104-4.477-5.865-10.509-10.823-13.713-6.125-3.959-12.015-5.461-18.528-4.724l-4.906.555-1.006-3.359c-1.494-4.987-8.118-11.867-14.194-14.741-9.277-4.389-21.337-2.787-29.11 3.867-1.846 1.579-5.435 6.385-7.977 10.679-2.542 4.294-4.898 7.51-5.236 7.147-.338-.362-2.055-5.459-3.815-11.326-1.761-5.866-4.084-12.684-5.162-15.149-2.597-5.937-9.081-12.647-18.367-19.007l-7.579-5.191v-58.037c0-54.879.082-58.012 1.494-57.581.821.251 5.717 1.775 10.88 3.385m60.709 155.932c3.145 1.933 5.425 6.256 5.422 10.284-.002 3.988-22.589 43.154-26.125 45.302-5.187 3.15-13.622 1.18-16.997-3.971-2.173-3.317-2.523-8.295-.819-11.668 5.394-10.678 22.305-38.599 24.187-39.934 4.265-3.026 9.422-3.03 14.332-.013m33.597 19.425c3.811 2.037 6.245 6.208 6.245 10.7 0 2.985-1.79 6.645-11.449 23.416-6.894 11.969-12.399 20.568-13.836 21.612-7.81 5.677-19.361-.349-19.37-10.104-.003-3.02 1.765-6.627 11.648-23.773 12.57-21.805 13.983-23.432 20.362-23.438 1.885-.002 4.765.712 6.4 1.587m33.889 19.712c4.476 2.032 7.051 6.018 7.055 10.921.003 3.113-1.641 6.494-11.406 23.467-12.452 21.643-14.209 23.67-20.517 23.67-7.354 0-12.729-5.297-12.586-12.403.064-3.214 1.732-6.648 11.267-23.205 6.155-10.687 12.204-20.28 13.441-21.317 3.696-3.096 7.648-3.447 12.746-1.133m32.398 26.447c3.524 2.149 5.421 5.107 5.989 9.34.388 2.896-.141 4.497-3.605 10.913-7.27 13.459-9.496 16.438-13.662 18.281-3.253 1.439-4.316 1.543-7.36.723-6.304-1.697-10.607-8.102-9.463-14.085.25-1.311 3.217-7.188 6.592-13.06 4.712-8.195 6.81-11.036 9.033-12.228 3.769-2.021 9.051-1.972 12.476.116" fill-rule="evenodd"/></svg>